<mxfile host="app.diagrams.net" modified="2022-04-21T18:33:54.094Z" agent="5.0 (X11; Linux x86_64) AppleWebKit/537.36 (KHTML, like Gecko) Chrome/100.0.4896.127 Safari/537.36" etag="tIeavpw22fj3Mvl1Zm73" version="17.4.6" type="github">
  <diagram name="Page-1" id="42789a77-a242-8287-6e28-9cd8cfd52e62">
    <mxGraphModel dx="1422" dy="763" grid="1" gridSize="10" guides="1" tooltips="1" connect="1" arrows="1" fold="1" page="1" pageScale="1" pageWidth="1920" pageHeight="1200" background="none" math="0" shadow="0">
      <root>
        <mxCell id="0" />
        <mxCell id="1" parent="0" />
        <mxCell id="1ea317790d2ca983-3" value="Stack" style="ellipse;whiteSpace=wrap;html=1;rounded=0;shadow=1;comic=0;labelBackgroundColor=none;strokeWidth=1;fontFamily=Verdana;fontSize=12;align=center;" parent="1" vertex="1">
          <mxGeometry x="1000" y="20" width="75" height="50" as="geometry" />
        </mxCell>
        <mxCell id="iuW7hz9HEa-le5su57v6-1" value="Условные обозначения" style="swimlane;fillColor=#fff2cc;strokeColor=#d6b656;" parent="1" vertex="1">
          <mxGeometry width="200" height="500" as="geometry" />
        </mxCell>
        <mxCell id="iuW7hz9HEa-le5su57v6-2" value="" style="endArrow=classic;html=1;rounded=0;" parent="iuW7hz9HEa-le5su57v6-1" edge="1">
          <mxGeometry width="50" height="50" relative="1" as="geometry">
            <mxPoint x="65" y="40" as="sourcePoint" />
            <mxPoint x="135" y="40" as="targetPoint" />
          </mxGeometry>
        </mxCell>
        <mxCell id="iuW7hz9HEa-le5su57v6-3" value="Наследование (от предка к потомку)" style="text;html=1;strokeColor=none;fillColor=none;align=center;verticalAlign=middle;whiteSpace=wrap;rounded=0;" parent="iuW7hz9HEa-le5su57v6-1" vertex="1">
          <mxGeometry y="50" width="200" height="30" as="geometry" />
        </mxCell>
        <mxCell id="iuW7hz9HEa-le5su57v6-4" value="" style="shape=flexArrow;endArrow=classic;html=1;rounded=0;" parent="iuW7hz9HEa-le5su57v6-1" edge="1">
          <mxGeometry width="50" height="50" relative="1" as="geometry">
            <mxPoint x="67.5" y="99.5" as="sourcePoint" />
            <mxPoint x="132.5" y="99.5" as="targetPoint" />
          </mxGeometry>
        </mxCell>
        <mxCell id="iuW7hz9HEa-le5su57v6-5" value="Агрегация (от агрегируемого к агрегатору)" style="text;html=1;strokeColor=none;fillColor=none;align=center;verticalAlign=middle;whiteSpace=wrap;rounded=0;" parent="iuW7hz9HEa-le5su57v6-1" vertex="1">
          <mxGeometry y="120" width="200" height="30" as="geometry" />
        </mxCell>
        <mxCell id="iuW7hz9HEa-le5su57v6-6" value="" style="ellipse;whiteSpace=wrap;html=1;" parent="iuW7hz9HEa-le5su57v6-1" vertex="1">
          <mxGeometry x="85" y="160" width="30" height="20" as="geometry" />
        </mxCell>
        <mxCell id="iuW7hz9HEa-le5su57v6-7" value="Класс или структура" style="text;html=1;strokeColor=none;fillColor=none;align=center;verticalAlign=middle;whiteSpace=wrap;rounded=0;" parent="iuW7hz9HEa-le5su57v6-1" vertex="1">
          <mxGeometry x="40" y="180" width="120" height="30" as="geometry" />
        </mxCell>
        <mxCell id="iuW7hz9HEa-le5su57v6-10" value="" style="rounded=0;whiteSpace=wrap;html=1;" parent="iuW7hz9HEa-le5su57v6-1" vertex="1">
          <mxGeometry x="80" y="210" width="40" height="20" as="geometry" />
        </mxCell>
        <mxCell id="iuW7hz9HEa-le5su57v6-11" value="Комментарий" style="text;html=1;strokeColor=none;fillColor=none;align=center;verticalAlign=middle;whiteSpace=wrap;rounded=0;" parent="iuW7hz9HEa-le5su57v6-1" vertex="1">
          <mxGeometry x="70" y="230" width="60" height="30" as="geometry" />
        </mxCell>
        <mxCell id="iuW7hz9HEa-le5su57v6-13" value="" style="shape=hexagon;perimeter=hexagonPerimeter2;whiteSpace=wrap;html=1;fixedSize=1;" parent="iuW7hz9HEa-le5su57v6-1" vertex="1">
          <mxGeometry x="70" y="260" width="60" height="30" as="geometry" />
        </mxCell>
        <mxCell id="iuW7hz9HEa-le5su57v6-14" value="Абстрактный класс" style="text;html=1;strokeColor=none;fillColor=none;align=center;verticalAlign=middle;whiteSpace=wrap;rounded=0;" parent="iuW7hz9HEa-le5su57v6-1" vertex="1">
          <mxGeometry x="45" y="290" width="110" height="30" as="geometry" />
        </mxCell>
        <mxCell id="-pM-HTgVDpuhf9tNbvXT-4" value="" style="endArrow=none;html=1;rounded=0;fillColor=#d5e8d4;strokeColor=#82b366;strokeWidth=5;" parent="iuW7hz9HEa-le5su57v6-1" edge="1">
          <mxGeometry width="50" height="50" relative="1" as="geometry">
            <mxPoint x="20" y="364.5" as="sourcePoint" />
            <mxPoint x="100" y="364.5" as="targetPoint" />
          </mxGeometry>
        </mxCell>
        <mxCell id="-pM-HTgVDpuhf9tNbvXT-5" value="Ответственность" style="text;html=1;resizable=0;autosize=1;align=center;verticalAlign=middle;points=[];fillColor=none;strokeColor=none;rounded=0;fontSize=15;" parent="iuW7hz9HEa-le5su57v6-1" vertex="1">
          <mxGeometry x="35" y="320" width="130" height="20" as="geometry" />
        </mxCell>
        <mxCell id="-pM-HTgVDpuhf9tNbvXT-6" value="" style="endArrow=none;html=1;rounded=0;fillColor=#f8cecc;strokeColor=#b85450;strokeWidth=5;" parent="iuW7hz9HEa-le5su57v6-1" edge="1">
          <mxGeometry width="50" height="50" relative="1" as="geometry">
            <mxPoint x="20" y="394.5" as="sourcePoint" />
            <mxPoint x="100" y="394.5" as="targetPoint" />
          </mxGeometry>
        </mxCell>
        <mxCell id="-pM-HTgVDpuhf9tNbvXT-7" value="" style="endArrow=none;html=1;rounded=0;fillColor=#ffe6cc;strokeColor=#d79b00;strokeWidth=5;" parent="iuW7hz9HEa-le5su57v6-1" edge="1">
          <mxGeometry width="50" height="50" relative="1" as="geometry">
            <mxPoint x="20" y="424.5" as="sourcePoint" />
            <mxPoint x="100" y="424.5" as="targetPoint" />
          </mxGeometry>
        </mxCell>
        <mxCell id="-pM-HTgVDpuhf9tNbvXT-8" value="Андрей" style="text;html=1;strokeColor=none;fillColor=none;align=center;verticalAlign=middle;whiteSpace=wrap;rounded=0;" parent="iuW7hz9HEa-le5su57v6-1" vertex="1">
          <mxGeometry x="115" y="350" width="60" height="30" as="geometry" />
        </mxCell>
        <mxCell id="-pM-HTgVDpuhf9tNbvXT-9" value="Денис" style="text;html=1;strokeColor=none;fillColor=none;align=center;verticalAlign=middle;whiteSpace=wrap;rounded=0;" parent="iuW7hz9HEa-le5su57v6-1" vertex="1">
          <mxGeometry x="115" y="380" width="60" height="30" as="geometry" />
        </mxCell>
        <mxCell id="-pM-HTgVDpuhf9tNbvXT-10" value="Алексей" style="text;html=1;strokeColor=none;fillColor=none;align=center;verticalAlign=middle;whiteSpace=wrap;rounded=0;" parent="iuW7hz9HEa-le5su57v6-1" vertex="1">
          <mxGeometry x="115" y="410" width="60" height="30" as="geometry" />
        </mxCell>
        <mxCell id="pSLm4igQXvGaD_Qqo5TO-2" value="" style="rounded=0;whiteSpace=wrap;html=1;" parent="1" vertex="1">
          <mxGeometry x="109.99" y="510" width="238.13" height="110" as="geometry" />
        </mxCell>
        <mxCell id="lb1J8IbFt9z_0kmrgKfr-1" value="Полезные ссылки" style="swimlane;" parent="1" vertex="1">
          <mxGeometry x="775" y="410" width="300" height="120" as="geometry" />
        </mxCell>
        <mxCell id="lb1J8IbFt9z_0kmrgKfr-4" value="&lt;a href=&quot;https://gist.github.com/ParkerProbe/62390cf65179a78cba430d15e39f2079&quot;&gt;Code Style (github.com)&lt;/a&gt;" style="text;html=1;align=center;verticalAlign=middle;resizable=0;points=[];autosize=1;strokeColor=none;fillColor=none;" parent="lb1J8IbFt9z_0kmrgKfr-1" vertex="1">
          <mxGeometry x="80" y="40" width="140" height="20" as="geometry" />
        </mxCell>
        <mxCell id="lb1J8IbFt9z_0kmrgKfr-5" value="&lt;a href=&quot;https://github.com/4udoman/mp2-lab7-compiler&quot;&gt;https://github.com/4udoman/mp2-lab7-compiler&lt;/a&gt;" style="text;html=1;align=center;verticalAlign=middle;resizable=0;points=[];autosize=1;strokeColor=none;fillColor=none;" parent="lb1J8IbFt9z_0kmrgKfr-1" vertex="1">
          <mxGeometry x="15" y="80" width="270" height="20" as="geometry" />
        </mxCell>
        <mxCell id="lb1J8IbFt9z_0kmrgKfr-31" value="Бугров Андрей" style="swimlane;fillColor=#d5e8d4;strokeColor=#82b366;" parent="1" vertex="1">
          <mxGeometry x="420" y="560" width="200" height="200" as="geometry" />
        </mxCell>
        <mxCell id="lb1J8IbFt9z_0kmrgKfr-49" value="Колесников Денис" style="swimlane;fillColor=#f8cecc;strokeColor=#b85450;" parent="1" vertex="1">
          <mxGeometry x="652.5" y="560" width="200" height="200" as="geometry" />
        </mxCell>
        <mxCell id="lb1J8IbFt9z_0kmrgKfr-50" value="Цветков Алексей" style="swimlane;fillColor=#ffe6cc;strokeColor=#d79b00;" parent="1" vertex="1">
          <mxGeometry x="875" y="560" width="200" height="200" as="geometry" />
        </mxCell>
        <mxCell id="lb1J8IbFt9z_0kmrgKfr-58" value="Блоки" style="swimlane;" parent="1" vertex="1">
          <mxGeometry x="20" y="650" width="370" height="410" as="geometry" />
        </mxCell>
        <mxCell id="0fknKg0I96SZaBarsdJD-8" value="Семантический&lt;br&gt;анализатор&lt;br&gt;(SemanticAnalyzer)" style="rounded=0;whiteSpace=wrap;html=1;" parent="lb1J8IbFt9z_0kmrgKfr-58" vertex="1">
          <mxGeometry x="42.5" y="210" width="110" height="60" as="geometry" />
        </mxCell>
        <mxCell id="0fknKg0I96SZaBarsdJD-9" value="Исполнитель кода&lt;br&gt;&lt;div&gt;&lt;span&gt;&amp;nbsp; &amp;nbsp;(&lt;/span&gt;&lt;font color=&quot;#202122&quot; face=&quot;sans-serif&quot;&gt;&lt;span style=&quot;font-size: 14px ; background-color: rgb(255 , 255 , 255)&quot;&gt;Interpretator&lt;/span&gt;&lt;/font&gt;&lt;span&gt;)&lt;/span&gt;&lt;/div&gt;" style="rounded=0;whiteSpace=wrap;html=1;" parent="lb1J8IbFt9z_0kmrgKfr-58" vertex="1">
          <mxGeometry x="40" y="300" width="120" height="60" as="geometry" />
        </mxCell>
        <mxCell id="0fknKg0I96SZaBarsdJD-10" value="main()" style="rounded=0;whiteSpace=wrap;html=1;" parent="lb1J8IbFt9z_0kmrgKfr-58" vertex="1">
          <mxGeometry x="200" y="40" width="110" height="40" as="geometry" />
        </mxCell>
        <mxCell id="lb1J8IbFt9z_0kmrgKfr-75" value="Класс коллектор ошибок&lt;br&gt;(ErrorHandler)" style="rounded=0;whiteSpace=wrap;html=1;" parent="lb1J8IbFt9z_0kmrgKfr-58" vertex="1">
          <mxGeometry x="200" y="120" width="110" height="50" as="geometry" />
        </mxCell>
        <mxCell id="0fknKg0I96SZaBarsdJD-11" value="" style="group" parent="lb1J8IbFt9z_0kmrgKfr-58" vertex="1" connectable="0">
          <mxGeometry x="47.5" y="40" width="105" height="140" as="geometry" />
        </mxCell>
        <mxCell id="0fknKg0I96SZaBarsdJD-1" value="Лексический анализатор&lt;br&gt;(LexicalAnalyzer)" style="rounded=0;whiteSpace=wrap;html=1;" parent="0fknKg0I96SZaBarsdJD-11" vertex="1">
          <mxGeometry x="5" width="95" height="40" as="geometry" />
        </mxCell>
        <mxCell id="0fknKg0I96SZaBarsdJD-6" value="" style="group" parent="0fknKg0I96SZaBarsdJD-11" vertex="1" connectable="0">
          <mxGeometry y="40" width="105" height="100" as="geometry" />
        </mxCell>
        <mxCell id="0fknKg0I96SZaBarsdJD-2" value="Синтакскический&lt;br&gt;анализатор&lt;br&gt;(SyntaxAnalyzer)" style="rounded=0;whiteSpace=wrap;html=1;" parent="0fknKg0I96SZaBarsdJD-6" vertex="1">
          <mxGeometry width="105" height="50" as="geometry" />
        </mxCell>
        <mxCell id="0fknKg0I96SZaBarsdJD-5" value="Иерархически&lt;br&gt;список&lt;br&gt;(TextLink)" style="rounded=0;whiteSpace=wrap;html=1;points=[[0,0,0,0,0],[0,0.23,0,0,0],[0,0.5,0,0,0],[0,0.77,0,0,0],[0,1,0,0,0],[0.25,0,0,0,0],[0.25,1,0,0,0],[0.5,0,0,0,0],[0.5,1,0,0,0],[0.75,0,0,0,0],[0.75,1,0,0,0],[1,0,0,0,0],[1,0.27,0,0,0],[1,0.5,0,0,0],[1,0.77,0,0,0],[1,1,0,0,0]];" parent="0fknKg0I96SZaBarsdJD-6" vertex="1">
          <mxGeometry x="10" y="50" width="80" height="50" as="geometry" />
        </mxCell>
        <mxCell id="ob3So-rM5bVcGHjbNZR2-1" value="Полезные команды Git" style="swimlane;" parent="1" vertex="1">
          <mxGeometry x="690" y="800" width="960" height="1035" as="geometry" />
        </mxCell>
        <mxCell id="ob3So-rM5bVcGHjbNZR2-3" value="&lt;span style=&quot;font-family: , &amp;#34;blinkmacsystemfont&amp;#34; , &amp;#34;roboto&amp;#34; , &amp;#34;helvetica neue&amp;#34; , &amp;#34;geneva&amp;#34; , &amp;#34;noto sans armenian&amp;#34; , &amp;#34;noto sans bengali&amp;#34; , &amp;#34;noto sans cherokee&amp;#34; , &amp;#34;noto sans devanagari&amp;#34; , &amp;#34;noto sans ethiopic&amp;#34; , &amp;#34;noto sans georgian&amp;#34; , &amp;#34;noto sans hebrew&amp;#34; , &amp;#34;noto sans kannada&amp;#34; , &amp;#34;noto sans khmer&amp;#34; , &amp;#34;noto sans lao&amp;#34; , &amp;#34;noto sans osmanya&amp;#34; , &amp;#34;noto sans tamil&amp;#34; , &amp;#34;noto sans telugu&amp;#34; , &amp;#34;noto sans thai&amp;#34; , &amp;#34;arial&amp;#34; , &amp;#34;tahoma&amp;#34; , &amp;#34;verdana&amp;#34; , sans-serif ; font-size: 13px ; text-align: left ; background-color: rgb(255 , 255 , 255)&quot;&gt;&lt;br&gt;&lt;/span&gt;" style="text;html=1;align=center;verticalAlign=middle;resizable=0;points=[];autosize=1;strokeColor=none;fillColor=none;" parent="ob3So-rM5bVcGHjbNZR2-1" vertex="1">
          <mxGeometry x="160" y="35" width="20" height="20" as="geometry" />
        </mxCell>
        <mxCell id="-pM-HTgVDpuhf9tNbvXT-16" value="&lt;ol&gt;&lt;li&gt;&lt;span&gt;&amp;nbsp;git pull - получение изменений из удалённого репозитория&amp;nbsp; git pull = (git fetch --all + get merge)&lt;/span&gt;&lt;/li&gt;&lt;ol&gt;&lt;li&gt;git merge вывел ошибку автоматического слияния (git merge добавит в файлы метки указывающие на места конфликта)&lt;/li&gt;&lt;ul&gt;&lt;li&gt;&lt;span&gt;git status -sb покажет какие файлы были затронуты merge.&amp;nbsp;&lt;/span&gt;&lt;/li&gt;&lt;li&gt;&lt;span&gt;git merge --abort откатит процесс слияния и вернёт лок. файлы к исх. состоянию&lt;/span&gt;&lt;/li&gt;&lt;/ul&gt;&lt;ol&gt;&lt;li&gt;Вручную поправить файлы не забыв удалить метки&lt;/li&gt;&lt;li&gt;Скопировать файлы с внесёнными изменениями и вернуть локальное состояние к состоянию удалённой ветки&lt;/li&gt;&lt;ol&gt;&lt;li&gt;git fetch --all (получает метаданные с удалённого репозитория)&lt;/li&gt;&lt;li&gt;git reset --hard origin/main (откатит состояние локальной ветки к удалённой main)&lt;/li&gt;&lt;li&gt;git pull&lt;/li&gt;&lt;/ol&gt;&lt;/ol&gt;&lt;li&gt;git merge удачно провёл автоматическое слияние ( предложит создать коммит повествующий о слиянии)&lt;/li&gt;&lt;/ol&gt;&lt;li&gt;&lt;font style=&quot;font-size: 15px&quot;&gt;&lt;font style=&quot;font-size: 15px&quot;&gt;Внести измененя в код (если требуются изменения в файле &lt;/font&gt;&lt;/font&gt;&lt;/li&gt;&lt;li&gt;&lt;font style=&quot;font-size: 15px&quot;&gt;&lt;font style=&quot;font-size: 15px&quot;&gt;другого ответственного согласовать с ним, не вносить изменения ранее)&lt;/font&gt;&lt;/font&gt;&lt;/li&gt;&lt;li&gt;&lt;font style=&quot;font-size: 15px&quot;&gt;git commit -a&amp;nbsp; -m &quot;..&quot;&lt;/font&gt;&lt;/li&gt;&lt;li&gt;&lt;font style=&quot;font-size: 15px&quot;&gt;git pull&amp;nbsp;&lt;/font&gt;&lt;/li&gt;&lt;ol&gt;&lt;li&gt;&lt;font style=&quot;font-size: 15px&quot;&gt;Решение аналогично приведённому выше&lt;/font&gt;&lt;/li&gt;&lt;li&gt;git push&lt;/li&gt;&lt;/ol&gt;&lt;/ol&gt;&lt;div&gt;git status - выведет состояние локального репозитория (в том числе может сообщить о прошедешем конфликте слияния)&lt;/div&gt;&lt;div&gt;git log - покажет историю коммитов&lt;/div&gt;&lt;div&gt;&lt;br&gt;&lt;/div&gt;&lt;h2&gt;Изменение коммитов&lt;/h2&gt;&lt;div&gt;git push --hard - перепишет состояние удалённого репозитория (делать в крайнем случае, переписывает историю коммитов на&lt;/div&gt;&lt;div&gt;локальную, полезно для изменения коммитов,&amp;nbsp;&lt;span&gt;которое уже ле&lt;/span&gt;&lt;span&gt;жат на удалённой ветке)&lt;/span&gt;&lt;/div&gt;&lt;div&gt;&lt;br&gt;&lt;/div&gt;&lt;div&gt;Способ порядочный - создать коммит отменяющий последние изменения - это не вызовет конфликтов&lt;/div&gt;&lt;p&gt;&lt;span style=&quot;background-color: transparent ; font-family: inherit ; font-style: inherit ; font-weight: inherit ; font-size: 13px&quot;&gt;git revert HEAD&lt;br&gt;&lt;/span&gt;&lt;p&gt;&lt;span style=&quot;background-color: transparent ; font-family: inherit ; font-style: inherit ; font-weight: inherit ; font-size: 13px&quot;&gt;git commit -m&amp;nbsp;&lt;/span&gt;&lt;span class=&quot;hljs-string&quot; style=&quot;background-color: transparent ; font-family: inherit ; font-style: inherit ; font-variant: inherit ; font-weight: inherit ; font-size: 13px ; margin: 0px ; padding: 0px ; border: 0px ; font-stretch: inherit ; line-height: inherit ; vertical-align: baseline ; box-sizing: inherit&quot;&gt;&#39;reverted the last commit&#39;&lt;/span&gt;&lt;/p&gt;&lt;/p&gt;&lt;p&gt;&lt;span class=&quot;hljs-string&quot; style=&quot;background-color: transparent ; font-family: inherit ; font-style: inherit ; font-variant: inherit ; font-weight: inherit ; font-size: 13px ; margin: 0px ; padding: 0px ; border: 0px ; font-stretch: inherit ; line-height: inherit ; vertical-align: baseline ; box-sizing: inherit&quot;&gt;&lt;br&gt;&lt;/span&gt;&lt;/p&gt;&lt;h2&gt;Локальные изменения&lt;/h2&gt;&lt;div&gt;(если коммиты которые хочется изменить уже залиты на уд.репозиторий решать способами выше)&lt;/div&gt;&lt;div&gt;&lt;br&gt;&lt;/div&gt;&lt;div&gt;git commit --amend - исправить сообщение последнего коммита&lt;/div&gt;&lt;div&gt;Можно перед этим сделать git add&amp;nbsp;&lt;/div&gt;&lt;div&gt;&lt;br&gt;&lt;/div&gt;&lt;div&gt;git checkout aaa - временно переключиться на коммит aaa&lt;/div&gt;&lt;div&gt;git checkout master - вернуться к текущему состоянию&lt;/div&gt;&lt;div&gt;&lt;br&gt;&lt;/div&gt;&lt;div&gt;git reset --soft bbb - изменения последущие этому коммиту не удалятся (удалятся только коммиты)&amp;nbsp;&lt;br&gt;&lt;/div&gt;&lt;div&gt;&lt;br&gt;&lt;/div&gt;&lt;div&gt;git reset --hard bbb -&amp;nbsp; вернуться к коммиту bbb, остальные будут удалены вместе с изменениями&lt;/div&gt;&lt;div&gt;git reset --hard HEAD~1 - вернуться к прошлому коммиты&lt;/div&gt;&lt;div&gt;&lt;code class=&quot;hljs language-css&quot; style=&quot;margin: 0px ; padding: 0px ; border: 0px ; font-style: inherit ; font-variant: inherit ; font-weight: inherit ; font-stretch: inherit ; line-height: inherit ; font-family: inherit ; vertical-align: baseline ; box-sizing: inherit ; background-color: transparent&quot;&gt;&lt;br&gt;&lt;/code&gt;&lt;/div&gt;&lt;div&gt;&lt;br&gt;&lt;/div&gt;&lt;div&gt;&lt;br&gt;&lt;/div&gt;&lt;div&gt;&lt;br&gt;&lt;/div&gt;&lt;div&gt;&lt;br&gt;&lt;/div&gt;&lt;div&gt;&lt;br&gt;&lt;/div&gt;&lt;div&gt;&lt;br&gt;&lt;/div&gt;" style="text;html=1;resizable=0;autosize=1;align=left;verticalAlign=top;points=[];fillColor=none;strokeColor=none;rounded=0;fontSize=15;" parent="ob3So-rM5bVcGHjbNZR2-1" vertex="1">
          <mxGeometry x="9" y="35" width="940" height="1000" as="geometry" />
        </mxCell>
        <mxCell id="-pM-HTgVDpuhf9tNbvXT-3" value="List" style="ellipse;whiteSpace=wrap;html=1;" parent="1" vertex="1">
          <mxGeometry x="1000" y="90" width="80" height="50" as="geometry" />
        </mxCell>
      </root>
    </mxGraphModel>
  </diagram>
</mxfile>
